<?xml version="1.0" encoding="utf-8"?>
<!-- Generator: Adobe Illustrator 19.2.1, SVG Export Plug-In . SVG Version: 6.00 Build 0)  -->
<svg version="1.1" id="Calque_1" xmlns="http://www.w3.org/2000/svg" xmlns:xlink="http://www.w3.org/1999/xlink" x="0px" y="0px"
	 viewBox="0 0 76.5 76.5" style="enable-background:new 0 0 76.5 76.5;" xml:space="preserve">
<style type="text/css">
	.st0{fill:#3D5A98;}
	.st1{fill:#FFFFFF;}
</style>
<title>Facebook</title>
<path class="st0" d="M12,0h52.5c6.6,0,12,5.4,12,12v52.5c0,6.6-5.4,12-12,12H12c-6.6,0-12-5.4-12-12V12C0,5.4,5.4,0,12,0z"/>
<path class="st1" d="M52.2,76.5V46.9h10l1.5-11.5H52.2V28c0-3.3,0.9-5.6,5.7-5.6h6.1V12c-3-0.3-5.9-0.5-8.9-0.4
	c-8.8,0-14.9,5.4-14.9,15.3v8.5h-10v11.5h10v29.6H52.2z"/>
</svg>
