<?xml version="1.0" encoding="utf-8"?>
<!-- Generator: Adobe Illustrator 20.1.0, SVG Export Plug-In . SVG Version: 6.00 Build 0)  -->
<svg version="1.1" id="Calque_1" xmlns="http://www.w3.org/2000/svg" xmlns:xlink="http://www.w3.org/1999/xlink" x="0px" y="0px"
	 viewBox="0 0 80.9 80.9" style="enable-background:new 0 0 80.9 80.9;" xml:space="preserve">
<style type="text/css">
	.st0{fill:url(#SVGID_1_);}
	.st1{fill:#FFFFFF;}
</style>
<g>
	<radialGradient id="SVGID_1_" cx="23.5126" cy="80.6166" r="81.5563" gradientUnits="userSpaceOnUse">
		<stop  offset="0" style="stop-color:#FFDA72"/>
		<stop  offset="0.2463" style="stop-color:#F3A94B"/>
		<stop  offset="0.3793" style="stop-color:#EA5132"/>
		<stop  offset="0.5394" style="stop-color:#D73E5F"/>
		<stop  offset="0.6995" style="stop-color:#C5257E"/>
		<stop  offset="0.9122" style="stop-color:#835EA2"/>
		<stop  offset="0.9852" style="stop-color:#6068AE"/>
	</radialGradient>
	<path class="st0" d="M80.9,63.1c0,9.8-7.9,17.7-17.6,17.7H17.6C7.9,80.8,0,72.9,0,63.1V17.8C0,8,7.9,0.1,17.6,0.1h45.7
		C73,0.1,80.9,8,80.9,17.8V63.1z"/>
	<g>
		<g>
			<path class="st1" d="M52.6,71.8H28.3C18.2,71.8,10,63.6,10,53.5V27.6c0-10.1,8.2-18.3,18.3-18.3h24.3c10.1,0,18.3,8.2,18.3,18.3
				v25.9C70.9,63.6,62.7,71.8,52.6,71.8z M28.3,15.9c-6.5,0-11.7,5.3-11.7,11.7v25.9c0,6.5,5.3,11.7,11.7,11.7h24.3
				c6.5,0,11.7-5.3,11.7-11.7V27.6c0-6.5-5.3-11.7-11.7-11.7H28.3z"/>
		</g>
		<g>
			<path class="st1" d="M40.5,57.8c-9.6,0-17.4-7.8-17.4-17.4c0-4.7,1.9-9.3,5.3-12.6c3.3-3.2,7.6-4.9,12.2-4.8
				c5.4,0.2,9.8,2,12.9,5.3c2.9,3.1,4.4,7.4,4.3,12.2v0c-0.1,4.6-1.9,9-5.1,12.2C49.4,56,45.1,57.8,40.5,57.8z M40.1,31.2
				c-2.2,0-4.4,0.9-6,2.5c-1.8,1.8-2.9,4.2-2.9,6.8c0,5.1,4.2,9.3,9.3,9.3c5.1,0,9.2-4.1,9.3-9.4c0.1-5.7-3.3-9-9.4-9.2
				C40.2,31.2,40.2,31.2,40.1,31.2z"/>
		</g>
		<circle class="st1" cx="56.9" cy="24" r="3.7"/>
	</g>
</g>
</svg>
